HIERARCHY
ROOT Hips
{
	OFFSET 0.000000 0.000000 0.000000
	CHANNELS 6 Xposition Yposition Zposition Zrotation Yrotation Xrotation 
	JOINT LeftUpLeg_virtual
	{
		OFFSET 0.000000 0.000000 0.000000
		CHANNELS 3 Zrotation Yrotation Xrotation
		JOINT LeftUpLeg
		{
			OFFSET 10.205400 -3.823500 0.155100
			CHANNELS 3 Zrotation Yrotation Xrotation
			JOINT LeftLeg
			{
				OFFSET 0.708757 -12.982077 0.567790
				CHANNELS 3 Zrotation Yrotation Xrotation
				JOINT LeftFoot
				{
					OFFSET -0.708756 -10.717838 -2.184338
					CHANNELS 3 Zrotation Yrotation Xrotation
					JOINT LeftToeBase
					{
						OFFSET 0.108149 -7.191104 7.560241
						CHANNELS 3 Zrotation Yrotation Xrotation
						End Site
						{
							OFFSET 0.000000 0.000000 0.000000
						}
					}
				}
			}
		}
	}
	JOINT RightUpLeg_virtual
	{
		OFFSET 0.000000 0.000000 0.000000
		CHANNELS 3 Zrotation Yrotation Xrotation
		JOINT RightUpLeg
		{
			OFFSET -10.205400 -3.823500 0.005500
			CHANNELS 3 Zrotation Yrotation Xrotation
			JOINT RightLeg
			{
				OFFSET -0.708756 -12.982134 0.610632
				CHANNELS 3 Zrotation Yrotation Xrotation
				JOINT RightFoot
				{
					OFFSET 0.708754 -10.717769 -1.945823
					CHANNELS 3 Zrotation Yrotation Xrotation
					JOINT RightToeBase
					{
						OFFSET -0.108140 -7.191069 7.372968
						CHANNELS 3 Zrotation Yrotation Xrotation
						End Site
						{
							OFFSET 0.000000 0.000000 0.000000
						}
					}
				}
			}
		}
	}
	JOINT Spine_virtual
	{
		OFFSET 0.000000 0.000000 0.000000
		CHANNELS 3 Zrotation Yrotation Xrotation
		JOINT Spine
		{
			OFFSET 0.000000 6.876099 0.125700
			CHANNELS 3 Zrotation Yrotation Xrotation
			JOINT Spine1
			{
				OFFSET 0.000000 8.022060 0.146608
				CHANNELS 3 Zrotation Yrotation Xrotation
				JOINT Spine2
				{
					OFFSET 0.000000 9.168068 0.167552
					CHANNELS 3 Zrotation Yrotation Xrotation
					JOINT Neck_virtual
					{
						OFFSET 0.000000 0.000000 0.000000
						CHANNELS 3 Zrotation Yrotation Xrotation
						JOINT Neck
						{
							OFFSET 0.000000 10.314075 0.188496
							CHANNELS 3 Zrotation Yrotation Xrotation
							JOINT Head
							{
								OFFSET 0.000000 7.643700 -2.377400
								CHANNELS 3 Zrotation Yrotation Xrotation
								End Site
								{
									OFFSET 0.000000 0.000000 0.000000
								}
							}
						}
					}
					JOINT LeftShoulder_virtual
					{
						OFFSET 0.000000 0.000000 0.000000
						CHANNELS 3 Zrotation Yrotation Xrotation
						JOINT LeftShoulder
						{
							OFFSET 4.392200 8.824978 0.174984
							CHANNELS 3 Zrotation Yrotation Xrotation
							JOINT LeftArm
							{
								OFFSET 8.771219 -2.981674 -0.026999
								CHANNELS 3 Zrotation Yrotation Xrotation
								JOINT LeftForeArm
								{
									OFFSET 8.512804 0.000000 -0.000000
									CHANNELS 3 Zrotation Yrotation Xrotation
									JOINT LeftHand
									{
										OFFSET 18.484802 0.000000 -0.000000
										CHANNELS 3 Zrotation Yrotation Xrotation
										End Site
										{
											OFFSET 0.000000 0.000000 0.000000
										}
									}
								}
							}
						}
					}
					JOINT RightShoulder_virtual
					{
						OFFSET 0.000000 0.000000 0.000000
						CHANNELS 3 Zrotation Yrotation Xrotation
						JOINT RightShoulder
						{
							OFFSET -4.392200 8.824993 0.141379
							CHANNELS 3 Zrotation Yrotation Xrotation
							JOINT RightArm
							{
								OFFSET -8.771282 -2.981682 -0.094208
								CHANNELS 3 Zrotation Yrotation Xrotation
								JOINT RightForeArm
								{
									OFFSET -8.494598 0.000000 0.000000
									CHANNELS 3 Zrotation Yrotation Xrotation
									JOINT RightHand
									{
										OFFSET -18.483803 0.000000 0.000001
										CHANNELS 3 Zrotation Yrotation Xrotation
										End Site
										{
											OFFSET 0.000000 0.000000 0.000000
										}
									}
								}
							}
						}
					}
				}
			}
		}
	}
}
MOTION
Frames: 13
Frame Time: 0.033333
-6.154856 36.098179 46.090641 -179.996836 1.075791 179.910243 -2.837264 -3.597066 8.329888 -13.320419 6.864338 -24.718407 15.265217 7.248944 18.425151 -1.644984 -5.684591 11.363645 0.000000 0.000000 0.000000 2.108901 -1.751532 4.721125 1.840371 2.299145 -19.679254 -8.214026 0.468389 19.112731 5.314729 6.569661 13.936292 0.000000 0.000000 0.000000 -1.180179 0.242656 -2.927782 0.043599 -0.861575 -7.954947 -0.770318 -1.373075 9.711651 -0.030241 -0.007669 -0.044772 -1.242282 0.800094 12.276631 1.433549 -3.475913 6.464630 0.000000 0.000000 0.000000 0.524427 1.429959 10.163946 -11.352024 -6.685149 3.293835 -54.647015 26.709267 12.106447 1.921459 -44.985207 3.581021 0.000000 0.000000 0.000000 -3.400149 2.496960 9.474985 27.978193 2.229093 2.902100 49.625334 -19.491997 18.931331 -7.005601 30.138620 -6.013115 0.000000 0.000000 0.000000 
-6.334079 36.085945 46.177235 -179.986577 1.125153 -179.920283 -2.856785 -3.637578 7.950898 -13.671587 6.858240 -24.726649 15.007544 7.141661 18.540151 -1.898273 -5.949693 11.799781 0.000000 0.000000 0.000000 1.996540 -1.846382 4.436604 1.523107 2.343428 -19.970336 -8.283431 0.449714 19.259199 5.325272 6.425932 14.020684 0.000000 0.000000 0.000000 -1.159484 0.170426 -3.209759 0.084739 -0.891643 -7.763470 -0.779436 -1.386741 9.635467 -0.003903 -0.002492 0.022696 -1.322189 0.731766 12.230394 1.407072 -3.445942 6.358724 0.000000 0.000000 0.000000 0.414523 1.371658 10.098696 -11.392879 -6.886414 3.277504 -54.545686 25.647492 12.023041 1.878791 -45.569294 3.594694 0.000000 0.000000 0.000000 -3.476953 2.497183 9.420641 27.865480 2.358449 2.937282 49.457048 -19.066400 18.935438 -7.025893 30.291448 -6.005677 0.000000 0.000000 0.000000 
-6.538688 36.059345 46.307655 179.974173 1.131497 -179.997259 -2.965195 -3.771186 7.614678 -14.022892 6.888598 -24.453824 15.137369 7.687716 18.487043 -1.724638 -5.877578 11.860370 0.000000 0.000000 0.000000 1.923542 -1.963271 4.132187 1.127509 2.423294 -20.293122 -8.273920 0.660971 19.880676 5.631981 6.519279 14.263568 0.000000 0.000000 0.000000 -1.148056 0.107635 -3.299909 0.145850 -0.862775 -7.345706 -0.905687 -1.368982 9.609450 -0.002590 0.010047 0.029383 -1.378438 0.741788 12.090192 1.224287 -3.496010 6.240218 0.000000 0.000000 0.000000 0.345844 1.256610 9.945543 -11.487471 -7.277111 3.261242 -54.195970 23.958958 11.864985 1.843077 -46.211240 3.538581 0.000000 0.000000 0.000000 -3.548135 2.391785 9.279310 27.714266 2.528091 2.911406 49.251497 -18.456759 18.931744 -7.034737 30.738839 -6.040219 0.000000 0.000000 0.000000 
-6.730072 36.036743 46.446362 179.979501 1.226267 -179.992970 -3.014790 -3.818845 7.294354 -14.359774 6.891097 -24.299238 15.280112 8.370107 18.368587 -1.659774 -5.875851 12.028554 0.000000 0.000000 0.000000 1.939561 -1.907751 3.856286 0.760544 2.249093 -20.837854 -8.150279 1.240785 20.709870 5.904855 6.573052 14.372979 0.000000 0.000000 0.000000 -1.076389 0.026671 -3.396786 0.244640 -0.882712 -6.874610 -1.078702 -1.418600 9.528864 -0.023418 -0.042923 0.008236 -1.547952 0.785130 11.979754 1.060138 -3.518909 6.063713 0.000000 0.000000 0.000000 0.171419 1.334561 9.803080 -11.563984 -7.590107 3.349478 -53.612146 22.103949 11.558273 1.713124 -46.949054 3.557015 0.000000 0.000000 0.000000 -3.694333 2.520320 9.195758 27.597255 2.899238 3.044917 49.021473 -17.751407 18.845747 -7.169835 31.515490 -6.072976 0.000000 0.000000 0.000000 
-6.880042 36.024914 46.580791 -179.924012 1.313016 -179.986495 -2.987915 -3.733533 6.936000 -14.582082 6.871295 -24.095142 15.452219 8.920255 18.227398 -1.688558 -5.899547 12.257619 0.000000 0.000000 0.000000 2.110093 -1.799426 3.708812 0.511712 1.694745 -21.660951 -8.084215 1.900108 21.788903 6.058134 6.815643 14.526026 0.000000 0.000000 0.000000 -0.961671 0.048812 -3.429806 0.337573 -0.858720 -6.409548 -1.238010 -1.408332 9.402765 0.006527 -0.031979 -0.011680 -1.786183 0.851333 11.887698 0.790224 -3.662108 5.865110 0.000000 0.000000 0.000000 -0.060959 1.332473 9.722855 -11.490915 -7.994018 3.406811 -52.728698 20.384720 11.169691 1.491081 -47.862247 3.680421 0.000000 0.000000 0.000000 -3.900966 2.508564 9.076542 27.540156 3.112614 3.175852 48.834005 -17.018031 18.795912 -7.260865 32.434417 -6.140068 0.000000 0.000000 0.000000 
-6.998807 36.020359 46.698593 -179.912182 1.383080 -179.971701 -3.058983 -3.659471 6.932479 -14.729895 6.755166 -24.334173 15.636472 9.409255 18.154253 -1.788440 -5.883466 12.431775 0.000000 0.000000 0.000000 2.170520 -1.665459 3.755309 0.292892 1.965369 -22.783636 -8.264741 1.931583 23.083852 6.037318 6.918474 14.881025 0.000000 0.000000 0.000000 -0.909286 0.095989 -3.411969 0.331214 -0.886721 -5.964890 -1.424503 -1.391629 9.236239 -0.006752 -0.026660 0.001817 -1.953384 0.809549 11.791500 0.561500 -3.813422 5.599719 0.000000 0.000000 0.000000 -0.204875 1.348370 9.594541 -11.366746 -8.380862 3.549629 -51.712086 18.915099 10.864503 1.323162 -48.955084 3.751947 0.000000 0.000000 0.000000 -4.021664 2.525669 8.929296 27.508976 3.262281 3.259803 48.730384 -16.344346 18.786678 -7.341954 33.469204 -6.175653 0.000000 0.000000 0.000000 
-7.077515 36.008461 46.773617 -179.938301 1.412335 -179.992710 -3.123465 -3.557823 6.974013 -14.846821 6.568228 -24.478208 15.839135 9.874556 18.160274 -1.959272 -5.852472 12.514847 0.000000 0.000000 0.000000 2.001107 -1.593285 3.836583 0.705384 2.019501 -23.946361 -8.482171 2.152794 24.480656 5.333279 6.708692 15.062850 0.000000 0.000000 0.000000 -0.968209 0.149973 -3.338711 0.261241 -0.968140 -5.553791 -1.501141 -1.385483 9.027261 0.003478 -0.032685 -0.006058 -2.113614 0.892845 11.680702 0.370018 -3.988029 5.351187 0.000000 0.000000 0.000000 -0.364867 1.389188 9.457643 -11.182468 -8.747322 3.696366 -50.593011 17.645929 10.582041 1.114544 -50.018179 3.882254 0.000000 0.000000 0.000000 -4.197198 2.551129 8.755391 27.491660 3.318758 3.336902 48.736255 -15.771035 18.865824 -7.436214 34.395050 -6.225370 0.000000 0.000000 0.000000 
-7.113309 35.996925 46.800873 -179.941798 1.376356 -179.995798 -3.137187 -3.497898 7.004421 -14.940591 6.338627 -24.561925 16.117747 10.066600 18.188415 -2.110455 -5.739138 12.456214 0.000000 0.000000 0.000000 1.917369 -1.582621 3.890012 1.458844 2.335102 -25.263611 -8.648317 1.755363 26.080469 4.387138 6.317003 15.101248 0.000000 0.000000 0.000000 -1.004748 0.212253 -3.212832 0.128886 -1.051993 -5.209271 -1.533937 -1.345020 8.842257 0.010601 -0.026753 -0.019820 -2.176127 0.897761 11.578856 0.233389 -4.198272 5.033694 0.000000 0.000000 0.000000 -0.412679 1.383120 9.318946 -11.039940 -9.141887 3.821502 -49.582898 16.520290 10.255684 1.029984 -50.795082 3.862271 0.000000 0.000000 0.000000 -4.251047 2.564596 8.576658 27.492912 3.247033 3.363219 48.776870 -15.312190 19.101725 -7.574105 35.134968 -6.264895 0.000000 0.000000 0.000000 
-7.118134 35.982059 46.773453 -179.982137 1.354245 179.863579 -3.132581 -3.391442 7.202610 -15.062623 5.846663 -24.343706 16.327009 10.170344 17.792390 -2.215587 -5.489108 12.659143 0.000000 0.000000 0.000000 1.805480 -1.689840 3.968137 2.553197 2.639225 -26.338244 -8.626256 1.175531 27.127517 3.580555 6.084711 15.170407 0.000000 0.000000 0.000000 -1.059810 0.335162 -2.991424 -0.093928 -1.218287 -4.862767 -1.543517 -1.403607 8.646480 -0.024329 0.050158 -0.000048 -2.155830 0.909864 11.350550 0.229119 -4.369245 4.699722 0.000000 0.000000 0.000000 -0.378269 1.524227 9.045082 -10.989930 -9.468005 3.934778 -48.816079 15.563050 9.816876 0.944660 -51.205109 3.856153 0.000000 0.000000 0.000000 -4.180047 2.696503 8.332611 27.472503 3.189464 3.284812 48.898308 -15.043818 19.420842 -7.612566 35.658020 -6.227434 0.000000 0.000000 0.000000 
-7.098845 35.961678 46.676369 -179.967138 1.197845 179.923971 -3.039655 -3.458566 7.271566 -15.200256 5.249414 -24.244742 16.651487 9.970024 17.747164 -2.325284 -5.193236 12.517667 0.000000 0.000000 0.000000 1.890986 -1.782799 4.037648 3.672527 2.787028 -27.267590 -8.167982 0.934387 27.194494 3.482865 6.446598 15.149143 0.000000 0.000000 0.000000 -1.038746 0.304902 -2.875434 -0.329528 -1.114749 -4.636655 -1.431520 -1.208975 8.386861 0.028341 0.031424 -0.009113 -2.127663 0.895598 11.131766 0.242060 -4.584671 4.354613 0.000000 0.000000 0.000000 -0.356585 1.473668 8.887335 -11.018692 -9.897662 4.008878 -48.368411 14.763427 9.209269 0.987219 -51.263558 3.753081 0.000000 0.000000 0.000000 -4.177134 2.583210 8.077130 27.432753 2.960761 3.311664 49.145544 -14.894151 19.657337 -7.680426 35.942839 -6.193003 0.000000 0.000000 0.000000 
-7.074721 35.949642 46.527054 179.947276 0.866609 179.918753 -3.029842 -3.553437 7.454255 -15.272281 4.398727 -24.060492 16.879954 9.748883 17.768966 -2.234671 -4.864415 12.289727 0.000000 0.000000 0.000000 2.034517 -1.877957 4.225990 4.535079 2.948065 -28.046015 -7.687164 1.147996 26.392821 3.546984 6.929175 15.085424 0.000000 0.000000 0.000000 -0.999113 0.074407 -2.680543 -0.638456 -1.099322 -4.387863 -1.399074 -1.144011 8.121049 0.023731 0.040464 -0.030340 -2.004471 0.962231 10.865936 0.408049 -4.730937 3.970009 0.000000 0.000000 0.000000 -0.239444 1.515078 8.538057 -11.126333 -9.871320 4.107208 -48.191598 14.349089 8.573808 1.108656 -51.242087 3.614078 0.000000 0.000000 0.000000 -4.014434 2.755895 7.880689 27.383963 2.937273 3.308426 49.511007 -14.962950 19.908745 -7.711218 36.027991 -6.102249 0.000000 0.000000 0.000000 
-7.053689 35.947197 46.347481 179.990265 0.357906 179.905011 -2.907776 -3.664892 7.680651 -15.385705 4.048480 -23.855945 17.049704 9.594265 17.740522 -2.393108 -4.802564 12.071136 0.000000 0.000000 0.000000 2.345600 -2.085092 4.508992 5.244491 3.087273 -28.772592 -7.447018 1.081935 25.237867 3.179240 7.039723 15.527392 0.000000 0.000000 0.000000 -0.879947 0.144392 -2.523573 -0.869871 -1.065419 -4.176872 -1.249024 -1.124209 7.873467 0.012556 0.012039 -0.002702 -1.905345 1.202798 10.501833 0.570218 -4.913556 3.596209 0.000000 0.000000 0.000000 -0.181610 1.643554 8.279184 -11.215779 -10.060809 4.091495 -48.267451 14.221983 8.056692 1.161094 -51.048585 3.581207 0.000000 0.000000 0.000000 -3.970228 2.753062 7.546014 27.311317 2.746389 3.235936 49.862338 -15.100218 20.310247 -7.741605 35.831855 -6.046502 0.000000 0.000000 0.000000 
-7.031906 35.944099 46.125317 -179.984241 -0.313025 179.837583 -2.749454 -3.809348 7.938599 -15.446492 3.681565 -23.595821 17.066356 9.472683 17.633858 -2.702282 -4.779421 11.814893 0.000000 0.000000 0.000000 2.663070 -2.312766 4.849158 5.868204 3.200278 -29.446356 -7.258787 0.911533 23.883047 2.770606 7.105802 15.968584 0.000000 0.000000 0.000000 -0.685358 0.070838 -2.325851 -1.037328 -0.904427 -3.946929 -1.152351 -1.012229 7.632081 0.021142 -0.127131 -0.040656 -1.819482 1.191855 10.199413 0.844436 -5.000191 3.241361 0.000000 0.000000 0.000000 -0.101227 1.734553 8.069282 -11.340167 -10.087711 4.116882 -48.368630 14.333500 7.876211 1.260869 -50.790943 3.599643 0.000000 0.000000 0.000000 -3.892302 2.781731 7.264518 27.205593 2.644928 3.231321 50.295683 -15.297307 20.693141 -7.769003 35.532379 -5.954817 0.000000 0.000000 0.000000 
